<?xml version="1.0" encoding="iso-8859-1"?>
<!-- Uploaded to: SVG Repo, www.svgrepo.com, Generator: SVG Repo Mixer Tools -->
<!DOCTYPE svg PUBLIC "-//W3C//DTD SVG 1.1//EN" "http://www.w3.org/Graphics/SVG/1.1/DTD/svg11.dtd">
<svg fill="#000000" height="800px" width="800px" version="1.1" id="Capa_1" xmlns="http://www.w3.org/2000/svg" xmlns:xlink="http://www.w3.org/1999/xlink" 
	 viewBox="0 0 465 465" xml:space="preserve">
<g>
	<path d="M378.752,215.886c-4.143,0-7.5,3.357-7.5,7.5v93.968c0,4.143,3.357,7.5,7.5,7.5s7.5-3.357,7.5-7.5v-93.968
		C386.252,219.243,382.895,215.886,378.752,215.886z"/>
	<path d="M359.999,210.886h37.505c4.143,0,7.5-3.357,7.5-7.5v-76.459c0-4.143-3.357-7.5-7.5-7.5h-11.252V88.573
		c0-4.143-3.357-7.5-7.5-7.5s-7.5,3.357-7.5,7.5v30.854h-11.253c-4.143,0-7.5,3.357-7.5,7.5v76.459
		C352.499,207.528,355.856,210.886,359.999,210.886z M367.499,134.427h22.505v61.459h-22.505V134.427z"/>
	<path d="M281.251,292.541c-4.143,0-7.5,3.357-7.5,7.5v18.354c0,4.143,3.357,7.5,7.5,7.5s7.5-3.357,7.5-7.5v-18.354
		C288.751,295.898,285.394,292.541,281.251,292.541z"/>
	<path d="M262.498,287.541h37.505c4.143,0,7.5-3.357,7.5-7.5v-76.459c0-4.143-3.357-7.5-7.5-7.5h-11.252V89.614
		c0-4.143-3.357-7.5-7.5-7.5s-7.5,3.357-7.5,7.5v106.468h-11.253c-4.143,0-7.5,3.357-7.5,7.5v76.459
		C254.998,284.184,258.355,287.541,262.498,287.541z M269.998,211.082h22.505v61.459h-22.505V211.082z"/>
	<path d="M183.75,215.886c-4.142,0-7.5,3.357-7.5,7.5v93.968c0,4.143,3.358,7.5,7.5,7.5s7.5-3.357,7.5-7.5v-93.968
		C191.25,219.243,187.892,215.886,183.75,215.886z"/>
	<path d="M164.997,210.886h37.505c4.142,0,7.5-3.357,7.5-7.5v-76.459c0-4.143-3.358-7.5-7.5-7.5H191.25V88.573
		c0-4.143-3.358-7.5-7.5-7.5s-7.5,3.357-7.5,7.5v30.854h-11.252c-4.142,0-7.5,3.357-7.5,7.5v76.459
		C157.497,207.528,160.855,210.886,164.997,210.886z M172.497,134.427h22.505v61.459h-22.505V134.427z"/>
	<path d="M86.249,292.541c-4.142,0-7.5,3.357-7.5,7.5v18.354c0,4.143,3.358,7.5,7.5,7.5s7.5-3.357,7.5-7.5v-18.354
		C93.749,295.898,90.391,292.541,86.249,292.541z"/>
	<path d="M67.496,287.541h37.505c4.142,0,7.5-3.357,7.5-7.5v-76.459c0-4.143-3.358-7.5-7.5-7.5H93.749V89.614
		c0-4.143-3.358-7.5-7.5-7.5s-7.5,3.357-7.5,7.5v106.468H67.496c-4.142,0-7.5,3.357-7.5,7.5v76.459
		C59.996,284.184,63.354,287.541,67.496,287.541z M74.996,211.082h22.505v61.459H74.996V211.082z"/>
	<path d="M457.5,41.594H7.5c-4.142,0-7.5,3.357-7.5,7.5v351.813c0,12.406,10.093,22.5,22.5,22.5h420c12.406,0,22.5-10.094,22.5-22.5
		V49.094C465,44.951,461.643,41.594,457.5,41.594z M450,56.594v293.78H15V56.594H450z M442.5,408.406h-420
		c-4.136,0-7.5-3.364-7.5-7.5v-35.532h435v35.532C450,405.042,446.636,408.406,442.5,408.406z"/>
</g>
</svg>